<mxfile host="Electron" agent="Mozilla/5.0 (Windows NT 10.0; Win64; x64) AppleWebKit/537.36 (KHTML, like Gecko) draw.io/25.0.1 Chrome/128.0.6613.186 Electron/32.2.6 Safari/537.36" version="25.0.1">
  <diagram name="Страница — 1" id="1WFOB4457gleIuKxmUU_">
    <mxGraphModel dx="714" dy="1587" grid="1" gridSize="10" guides="1" tooltips="1" connect="1" arrows="1" fold="1" page="1" pageScale="1" pageWidth="827" pageHeight="1169" math="0" shadow="0">
      <root>
        <mxCell id="0" />
        <mxCell id="1" parent="0" />
        <mxCell id="mgk1ID3RusDYjIA6PYYZ-15" value="" style="group" vertex="1" connectable="0" parent="1">
          <mxGeometry x="270" y="-250" width="190" height="280" as="geometry" />
        </mxCell>
        <mxCell id="mgk1ID3RusDYjIA6PYYZ-8" value="" style="rounded=0;whiteSpace=wrap;html=1;" vertex="1" parent="mgk1ID3RusDYjIA6PYYZ-15">
          <mxGeometry width="190" height="280" as="geometry" />
        </mxCell>
        <mxCell id="mgk1ID3RusDYjIA6PYYZ-7" value="построенные объекты" style="rounded=1;whiteSpace=wrap;html=1;" vertex="1" parent="mgk1ID3RusDYjIA6PYYZ-15">
          <mxGeometry x="10" y="140" width="170" height="30" as="geometry" />
        </mxCell>
        <mxCell id="mgk1ID3RusDYjIA6PYYZ-10" value="Полезные статьи" style="rounded=1;whiteSpace=wrap;html=1;" vertex="1" parent="mgk1ID3RusDYjIA6PYYZ-15">
          <mxGeometry x="10" y="170" width="170" height="30" as="geometry" />
        </mxCell>
        <mxCell id="mgk1ID3RusDYjIA6PYYZ-11" value="Связаться с нами" style="rounded=1;whiteSpace=wrap;html=1;" vertex="1" parent="mgk1ID3RusDYjIA6PYYZ-15">
          <mxGeometry x="10" y="200" width="170" height="30" as="geometry" />
        </mxCell>
        <mxCell id="mgk1ID3RusDYjIA6PYYZ-12" value="назад" style="rounded=1;whiteSpace=wrap;html=1;" vertex="1" parent="mgk1ID3RusDYjIA6PYYZ-15">
          <mxGeometry x="10" y="230" width="170" height="30" as="geometry" />
        </mxCell>
        <mxCell id="mgk1ID3RusDYjIA6PYYZ-14" value="контент" style="rounded=1;whiteSpace=wrap;html=1;" vertex="1" parent="mgk1ID3RusDYjIA6PYYZ-15">
          <mxGeometry x="10" y="10" width="170" height="100" as="geometry" />
        </mxCell>
        <mxCell id="mgk1ID3RusDYjIA6PYYZ-16" value="" style="group" vertex="1" connectable="0" parent="1">
          <mxGeometry x="270" y="60" width="190" height="280" as="geometry" />
        </mxCell>
        <mxCell id="mgk1ID3RusDYjIA6PYYZ-17" value="" style="rounded=0;whiteSpace=wrap;html=1;" vertex="1" parent="mgk1ID3RusDYjIA6PYYZ-16">
          <mxGeometry width="190" height="280" as="geometry" />
        </mxCell>
        <mxCell id="mgk1ID3RusDYjIA6PYYZ-18" value="Пример выполнения работ" style="rounded=1;whiteSpace=wrap;html=1;" vertex="1" parent="mgk1ID3RusDYjIA6PYYZ-16">
          <mxGeometry x="10" y="140" width="170" height="30" as="geometry" />
        </mxCell>
        <mxCell id="mgk1ID3RusDYjIA6PYYZ-19" value="Полезные статьи" style="rounded=1;whiteSpace=wrap;html=1;" vertex="1" parent="mgk1ID3RusDYjIA6PYYZ-16">
          <mxGeometry x="10" y="170" width="170" height="30" as="geometry" />
        </mxCell>
        <mxCell id="mgk1ID3RusDYjIA6PYYZ-20" value="Связаться с нами" style="rounded=1;whiteSpace=wrap;html=1;" vertex="1" parent="mgk1ID3RusDYjIA6PYYZ-16">
          <mxGeometry x="10" y="200" width="170" height="30" as="geometry" />
        </mxCell>
        <mxCell id="mgk1ID3RusDYjIA6PYYZ-21" value="назад" style="rounded=1;whiteSpace=wrap;html=1;" vertex="1" parent="mgk1ID3RusDYjIA6PYYZ-16">
          <mxGeometry x="10" y="230" width="170" height="30" as="geometry" />
        </mxCell>
        <mxCell id="mgk1ID3RusDYjIA6PYYZ-22" value="контент" style="rounded=1;whiteSpace=wrap;html=1;" vertex="1" parent="mgk1ID3RusDYjIA6PYYZ-16">
          <mxGeometry x="10" y="10" width="170" height="100" as="geometry" />
        </mxCell>
        <mxCell id="mgk1ID3RusDYjIA6PYYZ-25" value="" style="group" vertex="1" connectable="0" parent="1">
          <mxGeometry x="30" y="10" width="190" height="220" as="geometry" />
        </mxCell>
        <mxCell id="mgk1ID3RusDYjIA6PYYZ-24" value="" style="rounded=0;whiteSpace=wrap;html=1;" vertex="1" parent="mgk1ID3RusDYjIA6PYYZ-25">
          <mxGeometry width="190" height="220" as="geometry" />
        </mxCell>
        <mxCell id="mgk1ID3RusDYjIA6PYYZ-2" value="логотип" style="rounded=1;whiteSpace=wrap;html=1;" vertex="1" parent="mgk1ID3RusDYjIA6PYYZ-25">
          <mxGeometry x="35" y="10" width="120" height="60" as="geometry" />
        </mxCell>
        <mxCell id="mgk1ID3RusDYjIA6PYYZ-3" value="строительство" style="rounded=1;whiteSpace=wrap;html=1;" vertex="1" parent="mgk1ID3RusDYjIA6PYYZ-25">
          <mxGeometry x="10" y="120" width="170" height="30" as="geometry" />
        </mxCell>
        <mxCell id="mgk1ID3RusDYjIA6PYYZ-4" value="инженерные сети&lt;span style=&quot;color: rgba(0, 0, 0, 0); font-family: monospace; font-size: 0px; text-align: start; text-wrap: nowrap;&quot;&gt;%3CmxGraphModel%3E%3Croot%3E%3CmxCell%20id%3D%220%22%2F%3E%3CmxCell%20id%3D%221%22%20parent%3D%220%22%2F%3E%3CmxCell%20id%3D%222%22%20value%3D%22%D1%81%D1%82%D1%80%D0%BE%D0%B8%D1%82%D0%B5%D0%BB%D1%8C%D1%81%D1%82%D0%B2%D0%BE%22%20style%3D%22rounded%3D1%3BwhiteSpace%3Dwrap%3Bhtml%3D1%3B%22%20vertex%3D%221%22%20parent%3D%221%22%3E%3CmxGeometry%20x%3D%2240%22%20y%3D%22130%22%20width%3D%22170%22%20height%3D%2230%22%20as%3D%22geometry%22%2F%3E%3C%2FmxCell%3E%3C%2Froot%3E%3C%2FmxGraphModel%3E&lt;/span&gt;" style="rounded=1;whiteSpace=wrap;html=1;" vertex="1" parent="mgk1ID3RusDYjIA6PYYZ-25">
          <mxGeometry x="10" y="150" width="170" height="30" as="geometry" />
        </mxCell>
        <mxCell id="mgk1ID3RusDYjIA6PYYZ-5" value="автоматизация" style="rounded=1;whiteSpace=wrap;html=1;" vertex="1" parent="mgk1ID3RusDYjIA6PYYZ-25">
          <mxGeometry x="10" y="180" width="170" height="30" as="geometry" />
        </mxCell>
        <mxCell id="mgk1ID3RusDYjIA6PYYZ-26" value="" style="curved=1;endArrow=classic;html=1;rounded=0;exitX=1;exitY=0.5;exitDx=0;exitDy=0;entryX=0;entryY=0.214;entryDx=0;entryDy=0;entryPerimeter=0;" edge="1" parent="1" source="mgk1ID3RusDYjIA6PYYZ-4" target="mgk1ID3RusDYjIA6PYYZ-17">
          <mxGeometry width="50" height="50" relative="1" as="geometry">
            <mxPoint x="390" y="200" as="sourcePoint" />
            <mxPoint x="440" y="150" as="targetPoint" />
            <Array as="points">
              <mxPoint x="230" y="140" />
              <mxPoint x="250" y="120" />
            </Array>
          </mxGeometry>
        </mxCell>
        <mxCell id="mgk1ID3RusDYjIA6PYYZ-29" value="" style="curved=1;endArrow=classic;html=1;rounded=0;exitX=1;exitY=0.5;exitDx=0;exitDy=0;entryX=0;entryY=0.357;entryDx=0;entryDy=0;entryPerimeter=0;" edge="1" parent="1" source="mgk1ID3RusDYjIA6PYYZ-3" target="mgk1ID3RusDYjIA6PYYZ-8">
          <mxGeometry width="50" height="50" relative="1" as="geometry">
            <mxPoint x="390" as="sourcePoint" />
            <mxPoint x="240" y="-180" as="targetPoint" />
            <Array as="points">
              <mxPoint x="260" y="110" />
              <mxPoint x="200" y="-160" />
            </Array>
          </mxGeometry>
        </mxCell>
        <mxCell id="mgk1ID3RusDYjIA6PYYZ-30" value="" style="curved=1;endArrow=classic;html=1;rounded=0;exitX=0;exitY=0.5;exitDx=0;exitDy=0;entryX=0.614;entryY=-0.003;entryDx=0;entryDy=0;entryPerimeter=0;fillColor=#dae8fc;strokeColor=#6c8ebf;" edge="1" parent="1" source="mgk1ID3RusDYjIA6PYYZ-12" target="mgk1ID3RusDYjIA6PYYZ-24">
          <mxGeometry width="50" height="50" relative="1" as="geometry">
            <mxPoint x="350" y="190" as="sourcePoint" />
            <mxPoint x="400" y="140" as="targetPoint" />
            <Array as="points">
              <mxPoint x="160" y="-50" />
              <mxPoint x="140" y="-30" />
            </Array>
          </mxGeometry>
        </mxCell>
        <mxCell id="mgk1ID3RusDYjIA6PYYZ-31" value="" style="curved=1;endArrow=classic;html=1;rounded=0;exitX=0;exitY=0.5;exitDx=0;exitDy=0;entryX=1.003;entryY=0.35;entryDx=0;entryDy=0;entryPerimeter=0;fillColor=#dae8fc;strokeColor=#6c8ebf;" edge="1" parent="1" source="mgk1ID3RusDYjIA6PYYZ-21" target="mgk1ID3RusDYjIA6PYYZ-24">
          <mxGeometry width="50" height="50" relative="1" as="geometry">
            <mxPoint x="350" y="190" as="sourcePoint" />
            <mxPoint x="400" y="140" as="targetPoint" />
            <Array as="points">
              <mxPoint x="230" y="230" />
              <mxPoint x="350" y="140" />
            </Array>
          </mxGeometry>
        </mxCell>
        <mxCell id="mgk1ID3RusDYjIA6PYYZ-32" value="" style="group" vertex="1" connectable="0" parent="1">
          <mxGeometry x="40" y="270" width="190" height="280" as="geometry" />
        </mxCell>
        <mxCell id="mgk1ID3RusDYjIA6PYYZ-33" value="" style="rounded=0;whiteSpace=wrap;html=1;" vertex="1" parent="mgk1ID3RusDYjIA6PYYZ-32">
          <mxGeometry width="190" height="280" as="geometry" />
        </mxCell>
        <mxCell id="mgk1ID3RusDYjIA6PYYZ-34" value="примеры выполненых работ" style="rounded=1;whiteSpace=wrap;html=1;" vertex="1" parent="mgk1ID3RusDYjIA6PYYZ-32">
          <mxGeometry x="10" y="140" width="170" height="30" as="geometry" />
        </mxCell>
        <mxCell id="mgk1ID3RusDYjIA6PYYZ-35" value="Полезные статьи" style="rounded=1;whiteSpace=wrap;html=1;" vertex="1" parent="mgk1ID3RusDYjIA6PYYZ-32">
          <mxGeometry x="10" y="170" width="170" height="30" as="geometry" />
        </mxCell>
        <mxCell id="mgk1ID3RusDYjIA6PYYZ-36" value="Связаться с нами" style="rounded=1;whiteSpace=wrap;html=1;" vertex="1" parent="mgk1ID3RusDYjIA6PYYZ-32">
          <mxGeometry x="10" y="200" width="170" height="30" as="geometry" />
        </mxCell>
        <mxCell id="mgk1ID3RusDYjIA6PYYZ-37" value="назад" style="rounded=1;whiteSpace=wrap;html=1;" vertex="1" parent="mgk1ID3RusDYjIA6PYYZ-32">
          <mxGeometry x="10" y="230" width="170" height="30" as="geometry" />
        </mxCell>
        <mxCell id="mgk1ID3RusDYjIA6PYYZ-38" value="контент" style="rounded=1;whiteSpace=wrap;html=1;" vertex="1" parent="mgk1ID3RusDYjIA6PYYZ-32">
          <mxGeometry x="10" y="10" width="170" height="100" as="geometry" />
        </mxCell>
        <mxCell id="mgk1ID3RusDYjIA6PYYZ-39" value="" style="curved=1;endArrow=classic;html=1;rounded=0;exitX=0.995;exitY=0.9;exitDx=0;exitDy=0;exitPerimeter=0;entryX=0.84;entryY=0.013;entryDx=0;entryDy=0;entryPerimeter=0;" edge="1" parent="1" source="mgk1ID3RusDYjIA6PYYZ-24" target="mgk1ID3RusDYjIA6PYYZ-33">
          <mxGeometry width="50" height="50" relative="1" as="geometry">
            <mxPoint x="350" y="350" as="sourcePoint" />
            <mxPoint x="400" y="300" as="targetPoint" />
            <Array as="points">
              <mxPoint x="250" y="230" />
              <mxPoint x="180" y="250" />
            </Array>
          </mxGeometry>
        </mxCell>
        <mxCell id="mgk1ID3RusDYjIA6PYYZ-40" value="" style="curved=1;endArrow=classic;html=1;rounded=0;exitX=0;exitY=0.5;exitDx=0;exitDy=0;entryX=0.332;entryY=1.007;entryDx=0;entryDy=0;entryPerimeter=0;fillColor=#dae8fc;strokeColor=#6c8ebf;" edge="1" parent="1" source="mgk1ID3RusDYjIA6PYYZ-37" target="mgk1ID3RusDYjIA6PYYZ-24">
          <mxGeometry width="50" height="50" relative="1" as="geometry">
            <mxPoint x="350" y="480" as="sourcePoint" />
            <mxPoint x="400" y="430" as="targetPoint" />
            <Array as="points">
              <mxPoint x="-10" y="360" />
              <mxPoint x="20" y="260" />
            </Array>
          </mxGeometry>
        </mxCell>
      </root>
    </mxGraphModel>
  </diagram>
</mxfile>
